# xmcd
#
# Track frame offsets:
#	150
#	13700
#	28987
#	39975
#	53825
#	66162
#	78225
#	93500
#	108750
#	124725
#
# Disc length: 1884
#
# Revision: 2
# Processed by: cddbd v1.5.1PL0 Copyright (c) Steve Scherf et al.
# Submitted via: MusicManager v6.1.1.0
# Normalized: r1:DSETVAR1
#
DISCID=79075a0a
DTITLE=Various Artist - Greatest Country Classics
DYEAR=1995
DGENRE=country
TTITLE0=Loretta Lynn - Coal Miners Daughter
TTITLE1=John Conlee - Rose Colored Glassed
TTITLE2=Conway Twitty - Hello Darlin'
TTITLE3=Tanya Tucker - Lizzie And The Rainman
TTITLE4=Patsy Cline - Crazy
TTITLE5=The Oak Ridge Boys - Elvira
TTITLE6=Jeannie Pruett - Satin Sheets
TTITLE7=Jeanie C. Riley - Harper Valley P.T.A.
TTITLE8=Don Williams - 'Till The Rivers All Run Dry
TTITLE9=Cal Smith - Country Bumpkin
EXTD=
EXTT0=
EXTT1=
EXTT2=
EXTT3=
EXTT4=
EXTT5=
EXTT6=
EXTT7=
EXTT8=
EXTT9=
PLAYORDER=
